<svg width="36" height="34" viewBox="0 0 36 34" fill="none" xmlns="http://www.w3.org/2000/svg">
<path d="M18 0.5H19C19.1625 0.5 19.2512 0.539181 19.3008 0.572266C19.3535 0.607437 19.3949 0.657948 19.4277 0.723633C19.4615 0.791217 19.481 0.864808 19.4912 0.925781C19.496 0.954763 19.498 0.978087 19.499 0.992188C19.4995 0.999128 19.5 1.00443 19.5 1.00586V33C19.5 33.1625 19.4608 33.2512 19.4277 33.3008C19.3926 33.3535 19.3421 33.3949 19.2764 33.4277C19.2088 33.4615 19.1352 33.481 19.0742 33.4912C19.0452 33.496 19.0219 33.498 19.0078 33.499C19.0009 33.4995 18.9956 33.5 18.9941 33.5H18C17.6503 33.5 17.2524 33.3174 16.9023 33.084C16.7354 32.9727 16.5951 32.8604 16.4971 32.7764C16.4484 32.7347 16.4104 32.7008 16.3857 32.6777C16.3736 32.6664 16.3649 32.6577 16.3594 32.6523C16.3566 32.6497 16.3545 32.6474 16.3535 32.6465L16.3525 32.6455L8.20703 24.5H1.99414C1.98538 24.4997 1.96979 24.4985 1.94922 24.4971C1.90782 24.4941 1.84543 24.4882 1.76953 24.4756C1.6148 24.4498 1.41621 24.399 1.22363 24.3027C1.03295 24.2074 0.857437 24.0723 0.728516 23.8789C0.601681 23.6887 0.5 23.4125 0.5 23V11C0.5 10.5875 0.601681 10.3113 0.728516 10.1211C0.857437 9.92771 1.03295 9.79261 1.22363 9.69727C1.41621 9.60098 1.6148 9.55021 1.76953 9.52441C1.84543 9.51176 1.90782 9.5059 1.94922 9.50293C1.96979 9.50146 1.98538 9.50029 1.99414 9.5H8.20703L16.3594 1.34766C16.3649 1.3423 16.3736 1.33355 16.3857 1.32227C16.4104 1.29924 16.4484 1.26535 16.4971 1.22363C16.5951 1.13957 16.7354 1.02729 16.9023 0.916016C17.2524 0.682618 17.6503 0.5 18 0.5Z" fill="#8899A6" stroke="black"/>
<path d="M18 0.5H19C19.1625 0.5 19.2512 0.539181 19.3008 0.572266C19.3535 0.607437 19.3949 0.657948 19.4277 0.723633C19.4615 0.791217 19.481 0.864808 19.4912 0.925781C19.496 0.954763 19.498 0.978087 19.499 0.992188C19.4995 0.999128 19.5 1.00443 19.5 1.00586V33C19.5 33.1625 19.4608 33.2512 19.4277 33.3008C19.3926 33.3535 19.3421 33.3949 19.2764 33.4277C19.2088 33.4615 19.1352 33.481 19.0742 33.4912C19.0452 33.496 19.0219 33.498 19.0078 33.499C19.0009 33.4995 18.9956 33.5 18.9941 33.5H18C17.6503 33.5 17.2524 33.3174 16.9023 33.084C16.7354 32.9727 16.5951 32.8604 16.4971 32.7764C16.4484 32.7347 16.4104 32.7008 16.3857 32.6777C16.3736 32.6664 16.3649 32.6577 16.3594 32.6523C16.3566 32.6497 16.3545 32.6474 16.3535 32.6465L16.3525 32.6455L8.5 24.793V9.20703L16.3594 1.34766C16.3649 1.3423 16.3736 1.33355 16.3857 1.32227C16.4104 1.29924 16.4484 1.26535 16.4971 1.22363C16.5951 1.13957 16.7354 1.02729 16.9023 0.916016C17.2524 0.682618 17.6503 0.5 18 0.5Z" fill="#CCD6DD" stroke="black"/>
<path d="M28.66 3.763C28.7984 3.60012 29.0307 3.56089 29.2147 3.66241L29.2899 3.71417C33.2016 7.05001 35.446 11.9156 35.4461 17.0628C35.4461 22.21 33.2015 27.0756 29.2908 30.4105C29.2041 30.4842 29.1017 30.5189 28.9998 30.5189C28.8732 30.5188 28.7481 30.4658 28.66 30.3626H28.6609C28.5005 30.1742 28.5232 29.8931 28.7098 29.7337C32.4243 26.5675 34.5526 21.9479 34.5526 17.0628C34.5525 12.1779 32.4231 7.55897 28.7088 4.39288C28.522 4.23336 28.4995 3.95107 28.659 3.76398L28.66 3.763Z" fill="#8899A6" stroke="black"/>
<path d="M26.0316 6.76678C26.1822 6.58728 26.4507 6.56167 26.6351 6.71405V6.71503C29.6823 9.2762 31.43 13.0231 31.43 16.9992C31.4299 21.0216 29.6491 24.7975 26.5433 27.3596L26.5413 27.3605C26.4611 27.4273 26.3661 27.4592 26.2698 27.4592C26.1443 27.4591 26.0241 27.4062 25.9388 27.3029C25.7878 27.12 25.8131 26.8507 25.9964 26.6994C28.9031 24.3006 30.5715 20.7645 30.5716 16.9992C30.5716 13.2783 28.9353 9.76815 26.0823 7.37128H26.0833C25.9021 7.21869 25.8788 6.948 26.0306 6.76776L26.0316 6.76678Z" fill="#8899A6" stroke="black"/>
<path d="M23.2482 9.67255C23.4027 9.48232 23.6632 9.43369 23.8683 9.53973L23.9523 9.5954C26.2075 11.4105 27.5001 14.1083 27.5002 16.9997C27.5002 19.8538 26.2341 22.5303 24.0256 24.3444L24.0246 24.3454C23.9325 24.4217 23.8212 24.4586 23.7092 24.4587C23.5627 24.4587 23.42 24.3968 23.3215 24.277V24.2761C23.146 24.0624 23.1778 23.7475 23.3908 23.5729C25.367 21.9491 26.5002 19.5523 26.5002 16.9997C26.5001 14.4133 25.3421 11.9975 23.3254 10.3747V10.3737L23.2531 10.3034C23.1054 10.1252 23.0975 9.86115 23.2482 9.67255Z" fill="#8899A6" stroke="black"/>
</svg>
